name Precision Landing15_filtered_grf.mot
datacolumns 37
datarows 6
range 0.002500 0.005000
endheader
time	1_ground_force_vx	1_ground_force_vy	1_ground_force_vz	1_ground_force_px	1_ground_force_py	1_ground_force_pz	1_ground_torque_x	1_ground_torque_y	1_ground_torque_z	2_ground_force_vx	2_ground_force_vy	2_ground_force_vz	2_ground_force_px	2_ground_force_py	2_ground_force_pz	2_ground_torque_x	2_ground_torque_y	2_ground_torque_z	3_ground_force_vx	3_ground_force_vy	3_ground_force_vz	3_ground_force_px	3_ground_force_py	3_ground_force_pz	3_ground_torque_x	3_ground_torque_y	3_ground_torque_z	4_ground_force_vx	4_ground_force_vy	4_ground_force_vz	4_ground_force_px	4_ground_force_py	4_ground_force_pz	4_ground_torque_x	4_ground_torque_y	4_ground_torque_z
            0.002500	            0.000000	            0.000000	           -0.000000	            0.103552	            0.000000	            0.319021	           -0.000000	           -0.000000	           -0.000000	           -0.000000	           -0.000000	           -0.000000	           -0.151368	            0.000000	            0.304495	           -0.000000	            0.000000	           -0.000000	           -6.268623	          348.239749	           89.360739	            0.353582	            1.254129	            1.890229	            3.488328	           -3.482523	          -53.257918	           -9.704295	          293.542299	           83.310548	           -0.289758	            1.264268	            1.901164	           -0.490092	           14.824661	            4.207403
            0.003000	            0.000000	            0.000000	           -0.000000	            0.103552	            0.000000	            0.319021	            0.000000	           -0.000000	           -0.000000	           -0.000000	           -0.000000	           -0.000000	           -0.151368	            0.000000	            0.304495	           -0.000000	            0.000000	           -0.000000	           -6.241984	          348.969416	           89.617694	            0.353582	            1.254129	            1.890229	            3.493113	           -3.528125	          -53.345013	           -9.646158	          293.589027	           83.305968	           -0.289758	            1.264268	            1.901164	           -0.487840	           14.847835	            4.213077
            0.003500	            0.000000	            0.000000	           -0.000000	            0.103552	            0.000000	            0.319021	            0.000000	           -0.000000	           -0.000000	           -0.000000	           -0.000000	           -0.000000	           -0.151368	            0.000000	            0.304495	           -0.000000	            0.000000	           -0.000000	           -6.213088	          349.714040	           89.868170	            0.353583	            1.254127	            1.890232	            3.498033	           -3.574367	          -53.434741	           -9.585000	          293.641225	           83.296532	           -0.289750	            1.264270	            1.901164	           -0.485404	           14.870604	            4.218310
            0.004000	            0.000000	            0.000000	           -0.000000	            0.103552	            0.000000	            0.319021	            0.000000	           -0.000000	           -0.000000	           -0.000000	           -0.000000	           -0.000000	           -0.151368	            0.000000	            0.304495	           -0.000000	            0.000000	            0.000000	           -6.182070	          350.472953	           90.111554	            0.353584	            1.254125	            1.890235	            3.503091	           -3.621139	          -53.527066	           -9.520917	          293.699450	           83.282297	           -0.289742	            1.264273	            1.901164	           -0.482787	           14.892926	            4.223083
            0.004500	            0.000000	            0.000000	           -0.000000	            0.103552	            0.000000	            0.319021	            0.000000	           -0.000000	           -0.000000	           -0.000000	            0.000000	           -0.000000	           -0.151368	            0.000000	            0.304495	           -0.000000	            0.000000	            0.000000	           -6.149087	          351.245537	           90.347325	            0.353584	            1.254123	            1.890237	            3.508294	           -3.668337	          -53.621953	           -9.453996	          293.764284	           83.263368	           -0.289734	            1.264276	            1.901164	           -0.479991	           14.914765	            4.227381
            0.005000	            0.000000	            0.000000	            0.000000	            0.103552	            0.000000	            0.319021	            0.000000	           -0.000000	           -0.000000	           -0.000000	            0.000000	           -0.000000	           -0.151368	            0.000000	            0.304495	           -0.000000	            0.000000	            0.000000	           -6.114322	          352.031227	           90.575059	            0.353585	            1.254121	            1.890240	            3.513649	           -3.715855	          -53.719368	           -9.384319	          293.836329	           83.239901	           -0.289726	            1.264278	            1.901164	           -0.477018	           14.936094	            4.231196
